<?xml version="1.0" encoding="UTF-8"?><svg id="Layer_1" xmlns="http://www.w3.org/2000/svg" viewBox="0 0 1381 591.5"><defs><style>.cls-1{fill:#1c1a30;}.cls-1,.cls-2,.cls-3{stroke-width:0px;}.cls-2{fill:#8bd450;}.cls-3{fill:#fff;}</style></defs><path class="cls-2" d="M437.81,587.05c-7.73,0-14-6.27-14-14v-112.27c0-7.73,6.27-14,14-14h38.18c7.73,0,14,6.27,14,14v73.4h47.49c7.73,0,14,6.27,14,14v24.87c0,7.73-6.27,14-14,14h-99.68Z"/><path class="cls-2" d="M667.14,587.05c-6.2,0-11.66-4.07-13.42-10.01l-4.1-13.82h-18.67l-4.1,13.82c-1.76,5.94-7.22,10.01-13.42,10.01h-39.07c-4.62,0-8.94-2.28-11.55-6.09-2.61-3.81-3.17-8.66-1.5-12.97l43.51-112.27c2.09-5.39,7.27-8.94,13.05-8.94h46.18c5.78,0,10.96,3.55,13.05,8.94l43.51,112.27c1.67,4.31,1.11,9.16-1.5,12.97-2.61,3.81-6.93,6.09-11.55,6.09h-40.4Z"/><path class="cls-2" d="M746.39,587.05c-7.73,0-14-6.27-14-14v-112.27c0-7.73,6.27-14,14-14h51.5c18.94,0,33.33,2.24,43.97,6.85,15.6,6.76,24.2,19.23,24.2,35.13,0,7.25-2.49,15.04-7.76,21.76,11.03,8.37,13.97,19.68,13.97,29.37,0,16.08-8.42,29.43-23.72,37.61-11.7,6.25-27.68,9.55-46.23,9.55h-55.94Z"/><path class="cls-2" d="M955.73,589.12c-23.06,0-46.3-6.72-63.75-18.44-3.54-2.38-5.81-6.24-6.15-10.49-.34-4.25,1.27-8.43,4.38-11.35l21.12-19.78c-12.93-8.73-20.22-21.15-20.22-35.46s7.85-27.38,21.54-36.34c12.53-8.21,28.96-12.54,47.52-12.54,21.11,0,42.08,6.46,57.53,17.71,3.33,2.43,5.42,6.2,5.72,10.31s-1.23,8.14-4.18,11.02l-17.38,16.98c20.75,10.47,25.59,26.14,25.59,38.47,0,24.05-22.44,49.93-71.72,49.93Z"/><path class="cls-2" d="M362.71,342.12c-19,0-34.77-15.08-35.17-33.62l-3.24-153.21c-.19-9.15,3.26-17.82,9.74-24.43,6.6-6.74,15.87-10.61,25.43-10.61l150.8.79c10.1.05,19.7,4.35,26.33,11.78l19.92,22.32c9.98,11.18,11.49,27.27,3.75,40.04l-19.76,32.62c-6.3,10.4-17.9,16.85-30.28,16.85h-78.1c-3.96,0-7.17,2.84-7.17,6.33v16.15c0,3.49,3.22,6.33,7.17,6.33h48.89c19.39,0,35.17,15.4,35.17,34.33s-15.78,34.33-35.17,34.33h-118.31Z"/><path class="cls-2" d="M679.06,406.54c-17.61,0-31.45-17.09-31.51-38.9l-.35-142.07h-21.36c-8.11,0-15.88-3.88-20.8-10.38l-41.99-55.46c-6.13-8.1-7.12-18.79-2.59-27.9,4.47-8.99,13.43-14.57,23.39-14.57l237.33,2.52c10.14.11,19.12,5.93,23.43,15.2,4.36,9.39,2.99,20.18-3.59,28.14l-43.71,52.95c-4.99,6.04-12.32,9.51-20.11,9.51h-17.54l2.22,141.17c.19,12.16-3.96,23.47-11.39,31.02-5.58,5.67-12.72,8.79-20.1,8.79h-51.32Z"/><path class="cls-2" d="M953.9,343.78c-3.72-.02-7.28-1.52-9.89-4.17-2.61-2.65-4.06-6.23-4.03-9.95l1-116.39v-16.09c0-3.49-3.22-6.33-7.17-6.33h-48.89c-19.39,0-35.17-15.4-35.17-34.33s15.78-34.33,35.17-34.33h118.31c19,0,34.77,15.08,35.17,33.62l3.24,153.21c.19,9.15-3.26,17.82-9.74,24.43-6.6,6.74-15.87,10.61-25.43,10.61,0,0-52.57-.28-52.57-.28Z"/><circle class="cls-2" cx="982.95" cy="55.25" r="51"/><path class="cls-2" d="M1084.86,426.86c-9.92,0-18.79-5.14-23.72-13.74s-4.9-18.85.11-27.42c1.99-3.41,5.33-5.82,9.19-6.63,113.04-23.91,115.49-45.18,115.54-46.07.07-1.19-.57-5.78-11.42-14.85-9.57-7.99-23.2-16.3-37.63-25.11-37.99-23.16-81.04-49.42-78.4-88.36.55-8.08,3.05-15.96,7.44-23.41,1.25-2.11,3.03-3.86,5.16-5.07l19.43-11,192.72-114.16c5.48-3.9,18.91-11.89,36.99-11.89,2.67,0,5.37.18,8.04.52,21.12,2.75,34.4,15.46,39.13,20.8,2.96,3.34,4.15,7.89,3.21,12.25l-24,111c-1.24,5.72-5.9,10.07-11.69,10.9-53.09,7.64-93.95,15.23-121.43,22.56-14.73,3.93-23.65,7.25-29,9.72,5.15,1.96,11.75,4.09,17.55,5.96,33.84,10.92,84.98,27.42,119.18,73.29,18.46,24.75,29.07,55.4,31.54,91.09.24,3.51-.84,6.97-3.04,9.72-4.55,5.68-9.78,10.85-15.53,15.34-2.44,1.91-5.44,2.95-8.53,2.97,0,0-240.8,1.61-240.83,1.61Z"/><path class="cls-2" d="M251.3,425.25c-2.07,0-4.12-.47-5.99-1.36-4.97-2.37-9.71-5.23-14.09-8.49-17.62-13.13-24.76-29.09-33.02-47.57-1.29-2.88-2.62-5.86-4.05-8.96-.64-1.39-1.49-3.22-2.48-5.35.96,14.55,2.39,29.77,3.63,39.79.15,1.2.13,2.22.12,3.4v.96c-.08,15.02-12.36,27.25-27.37,27.25l-119.89-1.17c-3.08-.03-6.06-1.07-8.49-2.97-5.75-4.49-10.97-9.66-15.53-15.34-3.62-4.52-4.09-10.81-1.16-15.82,14.69-25.14,23.77-51.48,26.98-78.29,6.43-53.66-11.07-101.71-26.5-144.09C7.54,123.52-6.2,85.75,17.39,58.96c.62-.7,1.25-1.44,1.89-2.19,5.6-6.56,13.26-15.55,24.8-15.55,3.43,0,6.74.83,9.85,2.45l228.88,119.72c.14.07.27.15.41.22l19.55,11.07c12.31,6.97,17.29,22.49,11.34,35.32l-45.7,98.49,44.23,75.69c5,8.57,5.04,18.82.11,27.42-4.94,8.6-13.81,13.74-23.73,13.74,0,0-37.73-.11-37.73-.11ZM185.16,225.31l6.31-13.6-63.48-33.21c1.09,3.87,2.83,8.64,4.16,12.31,1.97,5.42,4.13,11.35,5.98,17.81l47.03,16.68Z"/><polygon class="cls-3" points="474.64 459.23 436.45 459.23 436.45 571.5 536.13 571.5 536.13 546.63 474.64 546.63 474.64 459.23"/><path class="cls-3" d="M616.49,459.23l-43.51,112.27h39.07l7.08-23.83h39.57l7.08,23.83h40.4l-43.51-112.27h-46.18ZM625.95,524.69l2.31-7.77c3.11-10.71,6.88-24.18,9.99-35.58h.89c3.11,11.4,7.33,24.87,10.43,35.58l2.31,7.77h-25.93Z"/><path class="cls-3" d="M826.28,512.08v-.69c16.87-3.45,24.42-14.51,24.42-24.18,0-22.11-23.98-27.98-54.17-27.98h-51.5v112.27h55.94c31.08,0,55.94-10.02,55.94-33.16,0-14.85-10.21-23.14-30.64-26.25ZM783.21,482.03h12.43c12.43,0,17.76,2.76,17.76,9.67s-5.33,11.75-17.76,11.75h-12.43v-21.42ZM798.31,548.7h-15.1v-24.53h15.1c15.1,0,21.31,3.45,21.31,11.74s-6.22,12.78-21.31,12.78Z"/><path class="cls-3" d="M981.68,506.9l-16.65-5.35c-14.43-4.15-22.64-6.04-22.64-11.23s5.77-7.6,14.21-7.6c13.76,0,21.98,2.76,32.41,8.12l19.09-18.65c-13.99-10.19-32.19-15.03-49.28-15.03-32.86,0-55.06,15.72-55.06,34.89,0,16.24,13.76,26.43,30.41,31.26l17.98,5.87c13.32,4.32,20.87,5.7,20.87,12.26,0,3.63-4.44,6.56-15.98,6.56-13.1,0-25.97-4.49-36.85-10.88l-21.76,20.38c16.21,10.88,37.07,16.06,55.94,16.06,37.3,0,57.72-16.93,57.72-35.93,0-15.55-11.1-25.22-30.41-30.74Z"/><path class="cls-1" d="M546.71,164.9l-19.92-22.32c-4-4.48-9.82-7.07-15.96-7.1-50.2-.26-100.4-.53-150.61-.79-11.91-.06-21.53,9.31-21.28,20.75l3.24,153.21c.23,11.07,9.64,19.92,21.17,19.92h118.31c11.69,0,21.17-9.1,21.17-20.33h0c0-11.23-9.48-20.33-21.17-20.33h-48.89c-11.69,0-21.17-9.1-21.17-20.33v-16.15c0-11.23,9.48-20.33,21.17-20.33h78.1c7.54,0,14.51-3.85,18.3-10.11,6.59-10.87,13.17-21.75,19.76-32.62,4.53-7.48,3.64-16.89-2.23-23.46ZM489.54,187.26l-.53.74c-2.99,4.15-8.54,6.7-14.54,6.7h-69.95c-9.26,0-16.77-5.99-16.77-13.37v-1.24c0-7.43,7.6-13.44,16.92-13.37,23.49.17,46.99.33,70.48.5,12.84.09,20.79,11.18,14.39,20.04Z"/><path class="cls-1" d="M821.67,134.22l-237.05-2.52c-10.18-.11-15.99,11.8-9.77,20.02,14,18.49,27.99,36.98,41.99,55.47,2.31,3.05,5.87,4.83,9.64,4.83h35.33l.38,156.04c.03,13.79,7.86,24.94,17.51,24.94h51.32c9.82,0,17.72-11.55,17.5-25.59l-2.44-155.39h31.76c3.59,0,7-1.62,9.32-4.42,14.57-17.65,29.14-35.3,43.71-52.95,6.63-8.03,1.11-20.32-9.19-20.43Z"/><path class="cls-1" d="M954.61,330.23c17.46.09,34.92.18,52.38.28,11.91.06,21.53-9.31,21.28-20.75l-3.24-153.21c-.23-11.07-9.64-19.92-21.17-19.92h-118.31c-11.69,0-21.17,9.1-21.17,20.33h0c0,11.23,9.48,20.33,21.17,20.33h48.89c11.69,0,21.17,9.1,21.17,20.33v16.15l-1.01,116.46Z"/><circle class="cls-1" cx="983.59" cy="55.7" r="37"/><path class="cls-1" d="M1200.59,334.2c2.16-39.63-131.26-72.14-127.47-128.13.54-8.01,3.73-14.19,5.54-17.25l19.55-11.07c64.46-38.18,128.92-76.37,193.39-114.55,2.86-2.1,16.54-11.68,35.53-9.2,17.52,2.28,27.89,13.3,30.47,16.2l-24,111c-134.08,19.29-169.1,35.05-169,47,.17,19.74,95.13,18.42,146.08,86.75,21.39,28.69,27.22,60.92,28.79,83.68-2.09,2.6-6.53,7.83-13.23,13.07,0,0-240.69,1.61-240.69,1.61-10.33.03-16.79-11.18-11.57-20.1,102.35-21.65,125.74-42.94,126.62-59.01Z"/><path class="cls-1" d="M256.8,315.73c-2.21-3.78-2.43-8.39-.58-12.36,15.28-32.93,30.56-65.86,45.84-98.8,2.93-6.31.52-13.82-5.54-17.25l-19.55-11.07C200.67,136.35,124.38,96.44,48.09,56.53c-7.18-3.76-13.82,5.62-19.55,12.13-36.66,41.63,49.44,132.23,35.96,244.79-4.44,37.08-18.42,65.93-28.79,83.68,2.09,2.6,6.53,7.83,13.23,13.07,0,0,38.56.38,119.62,1.17,7.41.07,13.46-5.9,13.5-13.31,0-1.26.04-2.22,0-2.58-.78-6.29-9.38-85.77-1.54-88.03,5.08-1.46,19.12,28.94,27,46,10.14,21.97,15.57,38.39,32.73,51.17,4.59,3.42,8.81,5.68,11.75,7.08l37.65.11c10.33.03,16.79-11.18,11.57-20.1l-44.4-75.98ZM208.52,210.05c-5.13,11.05-10.26,22.11-15.39,33.16l-66.07-23.43c-5.64-25.15-19.59-44.88-10.36-55.36,1.92-2.18,4.15-5.33,6.56-4.07,25.61,13.4,51.22,26.79,76.83,40.19l6.56,3.72c2.03,1.15,2.84,3.67,1.86,5.79Z"/></svg>